HIERARCHY
ROOT Hips
{
	OFFSET -14.64140 90.27770 -84.91600
	CHANNELS 6 Xposition Yposition Zposition Zrotation Xrotation Yrotation
	JOINT Spine
	{
		OFFSET 0.00000 13.20850 -1.60436
		CHANNELS 3 Zrotation Xrotation Yrotation
		JOINT Spine1
		{
			OFFSET 0.00000 8.61716 0.00000
			CHANNELS 3 Zrotation Xrotation Yrotation
			JOINT Spine2
			{
				OFFSET 0.00000 8.61717 0.00000
				CHANNELS 3 Zrotation Xrotation Yrotation
				JOINT Spine3
				{
					OFFSET 0.00000 8.61717 0.00000
					CHANNELS 3 Zrotation Xrotation Yrotation
					JOINT Neck
					{
						OFFSET 0.00000 11.07920 1.10792
						CHANNELS 3 Zrotation Xrotation Yrotation
						JOINT Neck1
						{
							OFFSET 0.00000 7.08032 0.00000
							CHANNELS 3 Zrotation Xrotation Yrotation
							JOINT Head
							{
								OFFSET 0.00000 7.08031 0.00000
								CHANNELS 3 Zrotation Xrotation Yrotation
								End site
								{
									OFFSET 0.00000 0.00000 0.00000
								}
							}
						}
					}
					JOINT RightShoulder
					{
						OFFSET -0.01000 7.91373 5.19711
						CHANNELS 3 Zrotation Xrotation Yrotation
						JOINT RightArm
						{
							OFFSET -18.41580 0.00000 0.00000
							CHANNELS 3 Zrotation Xrotation Yrotation
							JOINT RightForeArm
							{
								OFFSET -29.11090 0.00000 0.00000
								CHANNELS 3 Zrotation Xrotation Yrotation
								JOINT RightHand
								{
									OFFSET -24.65040 0.00000 0.00000
									CHANNELS 3 Zrotation Xrotation Yrotation
									JOINT RightHandThumb1
									{
										OFFSET -5.35114 -0.85590 3.97906
										CHANNELS 3 Zrotation Xrotation Yrotation
										JOINT RightHandThumb2
										{
											OFFSET -4.52789 0.00000 0.00000
											CHANNELS 3 Zrotation Xrotation Yrotation
											JOINT RightHandThumb3
											{
												OFFSET -2.46976 0.00000 0.00000
												CHANNELS 3 Zrotation Xrotation Yrotation
												End site
												{
													OFFSET 0.00000 0.00000 0.00000
												}
											}
										}
									}
									JOINT RightHandIndex1
									{
										OFFSET -14.26970 0.00000 2.88139
										CHANNELS 3 Zrotation Xrotation Yrotation
										JOINT RightHandIndex2
										{
											OFFSET -5.48836 0.00000 0.00000
											CHANNELS 3 Zrotation Xrotation Yrotation
											JOINT RightHandIndex3
											{
												OFFSET -3.01859 0.00000 0.00000
												CHANNELS 3 Zrotation Xrotation Yrotation
												End site
												{
													OFFSET 0.00000 0.00000 0.00000
												}
											}
										}
									}
									JOINT RightHandMiddle1
									{
										OFFSET -14.26970 0.00000 -0.09147
										CHANNELS 3 Zrotation Xrotation Yrotation
										JOINT RightHandMiddle2
										{
											OFFSET -6.17441 0.00000 0.00000
											CHANNELS 3 Zrotation Xrotation Yrotation
											JOINT RightHandMiddle3
											{
												OFFSET -3.56743 0.00000 0.00000
												CHANNELS 3 Zrotation Xrotation Yrotation
												End site
												{
													OFFSET 0.00000 0.00000 0.00000
												}
											}
										}
									}
									JOINT RightHandRing1
									{
										OFFSET -12.69180 0.00000 -3.06433
										CHANNELS 3 Zrotation Xrotation Yrotation
										JOINT RightHandRing2
										{
											OFFSET -5.62556 0.00000 0.00000
											CHANNELS 3 Zrotation Xrotation Yrotation
											JOINT RightHandRing3
											{
												OFFSET -3.56744 0.00000 0.00000
												CHANNELS 3 Zrotation Xrotation Yrotation
												End site
												{
													OFFSET 0.00000 0.00000 0.00000
												}
											}
										}
									}
									JOINT RightHandPinky1
									{
										OFFSET -11.11390 0.00000 -6.03719
										CHANNELS 3 Zrotation Xrotation Yrotation
										JOINT RightHandPinky2
										{
											OFFSET -4.52789 0.00000 0.00000
											CHANNELS 3 Zrotation Xrotation Yrotation
											JOINT RightHandPinky3
											{
												OFFSET -2.46976 0.00000 0.00000
												CHANNELS 3 Zrotation Xrotation Yrotation
												End site
												{
													OFFSET 0.00000 0.00000 0.00000
												}
											}
										}
									}
								}
							}
						}
					}
					JOINT LeftShoulder
					{
						OFFSET 0.01000 7.91373 5.19711
						CHANNELS 3 Zrotation Xrotation Yrotation
						JOINT LeftArm
						{
							OFFSET 18.41580 0.00000 0.00000
							CHANNELS 3 Zrotation Xrotation Yrotation
							JOINT LeftForeArm
							{
								OFFSET 29.11090 0.00000 0.00000
								CHANNELS 3 Zrotation Xrotation Yrotation
								JOINT LeftHand
								{
									OFFSET 24.65040 0.00000 0.00000
									CHANNELS 3 Zrotation Xrotation Yrotation
									JOINT LeftHandThumb1
									{
										OFFSET 5.35114 -0.85590 3.97906
										CHANNELS 3 Zrotation Xrotation Yrotation
										JOINT LeftHandThumb2
										{
											OFFSET 4.52789 0.00000 0.00000
											CHANNELS 3 Zrotation Xrotation Yrotation
											JOINT LeftHandThumb3
											{
												OFFSET 2.46977 0.00000 0.00000
												CHANNELS 3 Zrotation Xrotation Yrotation
												End site
												{
													OFFSET 0.00000 0.00000 0.00000
												}
											}
										}
									}
									JOINT LeftHandIndex1
									{
										OFFSET 14.26970 0.00000 2.88139
										CHANNELS 3 Zrotation Xrotation Yrotation
										JOINT LeftHandIndex2
										{
											OFFSET 5.48836 0.00000 0.00000
											CHANNELS 3 Zrotation Xrotation Yrotation
											JOINT LeftHandIndex3
											{
												OFFSET 3.01859 0.00000 0.00000
												CHANNELS 3 Zrotation Xrotation Yrotation
												End site
												{
													OFFSET 0.00000 0.00000 0.00000
												}
											}
										}
									}
									JOINT LeftHandMiddle1
									{
										OFFSET 14.26970 0.00000 -0.09147
										CHANNELS 3 Zrotation Xrotation Yrotation
										JOINT LeftHandMiddle2
										{
											OFFSET 6.17440 0.00000 0.00000
											CHANNELS 3 Zrotation Xrotation Yrotation
											JOINT LeftHandMiddle3
											{
												OFFSET 3.56744 0.00000 0.00000
												CHANNELS 3 Zrotation Xrotation Yrotation
												End site
												{
													OFFSET 0.00000 0.00000 0.00000
												}
											}
										}
									}
									JOINT LeftHandRing1
									{
										OFFSET 12.69180 0.00000 -3.06433
										CHANNELS 3 Zrotation Xrotation Yrotation
										JOINT LeftHandRing2
										{
											OFFSET 5.62556 0.00000 0.00000
											CHANNELS 3 Zrotation Xrotation Yrotation
											JOINT LeftHandRing3
											{
												OFFSET 3.56744 0.00000 0.00000
												CHANNELS 3 Zrotation Xrotation Yrotation
												End site
												{
													OFFSET 0.00000 0.00000 0.00000
												}
											}
										}
									}
									JOINT LeftHandPinky1
									{
										OFFSET 11.11390 0.00000 -6.03719
										CHANNELS 3 Zrotation Xrotation Yrotation
										JOINT LeftHandPinky2
										{
											OFFSET 4.52789 0.00000 0.00000
											CHANNELS 3 Zrotation Xrotation Yrotation
											JOINT LeftHandPinky3
											{
												OFFSET 2.46976 0.00000 0.00000
												CHANNELS 3 Zrotation Xrotation Yrotation
												End site
												{
													OFFSET 0.00000 0.00000 0.00000
												}
											}
										}
									}
								}
							}
						}
					}
					JOINT pCube4
					{
						OFFSET 0.00000 10.91090 1.10792
						CHANNELS 3 Zrotation Xrotation Yrotation
						End site
						{
							OFFSET 0.00000 0.00000 0.00000
						}
					}
				}
			}
		}
	}
	JOINT RightUpLeg
	{
		OFFSET -9.98441 0.00000 0.00000
		CHANNELS 3 Zrotation Xrotation Yrotation
		JOINT RightLeg
		{
			OFFSET 0.00000 -42.11790 0.00000
			CHANNELS 3 Zrotation Xrotation Yrotation
			JOINT RightFoot
			{
				OFFSET 0.00000 -45.00020 -0.00001
				CHANNELS 3 Zrotation Xrotation Yrotation
				JOINT RightForeFoot
				{
					OFFSET 0.00000 -3.74820 0.00000
					CHANNELS 3 Zrotation Xrotation Yrotation
					JOINT RightToeBase
					{
						OFFSET 0.00000 0.06325 14.43120
						CHANNELS 3 Zrotation Xrotation Yrotation
						End site
						{
							OFFSET 0.00000 0.00000 0.00000
						}
					}
				}
			}
		}
	}
	JOINT LeftUpLeg
	{
		OFFSET 9.98441 0.00000 0.00000
		CHANNELS 3 Zrotation Xrotation Yrotation
		JOINT LeftLeg
		{
			OFFSET 0.00000 -42.11800 0.00000
			CHANNELS 3 Zrotation Xrotation Yrotation
			JOINT LeftFoot
			{
				OFFSET 0.00000 -45.00070 0.00000
				CHANNELS 3 Zrotation Xrotation Yrotation
				JOINT LeftForeFoot
				{
					OFFSET 0.00000 -3.74824 0.00000
					CHANNELS 3 Zrotation Xrotation Yrotation
					JOINT LeftToeBase
					{
						OFFSET 0.00000 0.06325 14.43110
						CHANNELS 3 Zrotation Xrotation Yrotation
						End site
						{
							OFFSET 0.00000 0.00000 0.00000
						}
					}
				}
			}
		}
	}
}
MOTION
Frames: 4
Frame Time: 0.050000
0.021194155583387237 -0.0001502353745899302 -0.028439989872099176 0.02639519062115639 0.044581282966092865 -0.020513114151726616 -3.605598997906023 3.962183984290909 -0.8268040392546198 -0.7913250149800115 4.509610358625718 0.34792629151533117 -0.7700385502191543 -0.1683579557133202 -1.590939292201042 1.4557911123316318 0.47969725780019845 -0.9584964741761228 -0.945242496024542 13.333732515109022 -1.1262528893764825 -0.25919965808420653 -1.002755651695112 -3.3638432154691467 0.1461060077150189 -15.667566288267011 -0.22373195523798786 3.4838449727522196 -0.8686531163961647 -14.750606907418687 61.91395317960694 14.924785539494163 14.151279095158513 34.56130611185272 4.619604326953531 80.24639321064632 20.997716126467747 0.10572075616182114 -7.622823589253499 4.532619620750627 -0.12166498835717376 -1.57343183554344 -0.03215958866977874 -0.028812854535897953 -56.18477036233701 0.025312263080439844 -0.02904485342771527 -56.252803532852596 -38.75119888497322 -0.012626533828663503 -0.012974440073849071 0.04902888325801776 -0.007536320318464714 -0.028076243294269176 -0.01295514220494578 0.04972923047124087 -0.027369642370015858 -36.74029408673555 0.0065795448819399764 -0.0194732106024488 0.02331188655654375 0.009859753814803054 0.040249480426277275 -0.02969288656244435 -0.02753410270715915 -0.024098261311904807 -19.752338256549 0.024267871581038006 -0.015885139105866766 0.0044413034702786925 0.022803950908604636 0.01397103269196557 -0.005937195842864944 -0.029609292150884474 -0.03757768233803382 24.03205295008452 0.03034748170491373 -0.017788418881178745 28.85343353358716 -0.014330452199727546 -0.024007465709803874 28.84013877742658 0.02013941367087601 0.03374692246812492 1.9540082622814898 0.6758062061068498 13.349063774399044 -53.8134192301998 20.559433532951395 -39.4837205645095 9.403918514680177 -0.42266954723083 -83.7768520354582 -18.3926622472543 10.585421793606354 -7.963058510422117 -0.4648785171308822 0.06211473674047222 -8.13416402258365 0.01875212681211424 -0.048825179340665124 44.580820528687724 -0.014424410986673606 0.024276194382271823 44.54849148615356 12.50728390583993 0.02193380478374885 0.010721650385530532 -0.014406520451864845 0.02684233579854941 -0.018249176022172887 0.024223018356257408 0.042694411880425304 0.026346230705495775 11.122501649760268 -0.03536417311475743 0.02767548608177246 -0.01549245258467377 0.04338336635218894 -0.006100759485184454 0.03251751678095845 -0.00814277694451822 0.02889748273763635 4.78448860828018 -0.04444035477122894 0.03859544230639354 0.03103903749586247 -0.012168719504452074 0.014250546197971397 0.015468659751270406 0.035975836759891536 0.023159366216901664 -5.643117106279486 -0.024345750443429133 -0.042879377942904896 -6.718008619985969 0.028287172682300164 0.026405721060867745 -6.722122177096963 -0.001816397648129803 -0.005327903118340575 0.019930649429666956 -0.03227622044132117 -0.02468584957072816 8.044650959125109 3.465276462116614 -19.26025755841852 0.025446263942324597 10.427671272312756 0.02861285043848282 -5.64648144574423 -15.707469838252234 3.2157887149635673 -0.027914324027024175 -0.003343074166438052 -0.0029661834705162946 0.014510054736977626 4.684386825263552 -0.04937921727160413 12.430077830233481 -8.240599079197107 6.872250626701096 -0.025395108966700518 46.35784360911435 -0.013507703194238156 -4.290501457671808 -14.712085694333576 -3.8611787625267096 0.012515771439557923 -0.020847252729168545 -0.024676480625356847 0.04290294341354113 -10.703194913774922 0.037667078810392024 
-0.04195138271592122 -0.04873360895606607 0.04300939399202161 -0.018441585637783402 -0.04944357671209735 0.007945812054372867 -3.447790407760256 3.9323204444736293 -0.8102595416118977 -0.7483982162849677 4.485156985869955 0.29754346616641014 -0.7362284277875714 -0.21263476748111823 -1.5525746251959371 1.4298899580374342 0.3948447541780698 -0.9349161646682194 -0.9365292664014988 13.344150516912187 -1.1549644644442176 -0.18076948591095154 -1.0490121501583805 -3.525642810398708 0.15085488031272737 -15.678361196997024 -0.2266176048202515 3.474971623098663 -0.8997095072470827 -14.807586036766715 61.39737634860972 14.880696269724028 14.092615072593368 32.51994518643491 4.90183102426802 79.52698970088579 22.181987227883912 0.07897578709682643 -7.746528394767797 4.521648276327275 -0.12783279029872 -1.6122289240792314 0.00884990289335784 -0.025297346212125663 -56.267076542045736 0.018002921072802467 -0.028265305114184958 -56.22368573829228 -38.733116272644814 0.017083029354596754 0.009292799523060885 -0.029874028173208986 0.019875515312945735 -0.004887928590163248 -0.045782298090204246 -0.03887823817158872 0.00963386973045898 -36.68339099737648 -0.029102039262244125 -0.010706953036610551 0.04270053833552298 0.014925955790542476 -0.022164992831047076 0.03367797966376204 -0.012529993331069399 -0.002770640726210754 -19.732964024701914 0.018692751044972228 0.047471028038980984 0.02266048567973271 -0.007635032795691776 -0.02294467179415777 0.03434459874425774 -0.0212484238812664 0.035334073567080806 24.103417295782613 -0.020560654555063614 -0.049856066735787206 28.816399929386147 -0.034731430165693515 0.02420116441896318 28.87478515415278 -0.03061295256604788 0.008815640118209393 2.169494120883406 0.677526732259908 13.451065870809733 -53.350719436618895 18.42826270259883 -40.064534323918 11.18007697985352 -1.4118625753306056 -83.4562675673802 -19.422040741570502 11.070016798754416 -8.517548126195681 -0.5020459550183691 0.08991156990287348 -8.084894177695032 0.02152242722402089 0.000803614192248881 44.5809461092323 -0.020036226818917476 -0.007838960226272262 44.51818447667325 12.491090822679224 0.03970339018755856 0.012843837145622367 0.016821496266603085 0.015411022429761423 0.011245412105562314 -0.015547440788282074 -0.006413292171745021 -0.04251677930833537 11.104905367331284 -0.005174537103345856 -0.03942139519548422 -0.003841989205636744 -0.0326581883114977 0.007944025525723031 0.01232586123409726 0.040010883763660195 -0.03150833170899158 4.75198383486679 0.03269948439462478 0.025694160873274408 -0.0388932398994235 0.032196048297116496 -0.020999985095435433 0.011389155958630782 0.011235445180378188 0.034571940786095115 -5.650711674207051 -0.03306038570696438 -0.012832346920464548 -6.728430680053142 0.016445592916995214 -0.03604246947148109 -6.739329437268173 0.04356194940372312 0.044510128701472154 -0.04801082982204609 0.047743853959418645 0.04866009875673033 8.015378883313364 3.4515280910427713 -19.177745456704955 -0.014510416633050643 10.351576098439484 -0.02681843820819239 -5.619624774011102 -15.658576869226442 3.2159104288413625 0.03374764968054763 0.025684831999748754 -0.031073314719967774 0.03184825335443163 4.7081283510949365 0.010864118309624833 12.453544120002395 -8.20712288305426 6.9120183233478745 -0.02908433121349336 46.33248085617872 -0.009439639725519753 -4.346400305774758 -14.74021862546335 -3.8382814976371806 0.008175815433055025 -0.038266458593216056 -0.021550107936430467 0.017979094785310706 -10.775818336467625 -0.023759122608468273 
0.011415525853098544 0.005928825429169156 0.02145242258919088 0.003126360440927391 0.04283940145140325 0.006000617198578883 -3.3183276062301124 3.921623523793806 -0.8463764253084082 -0.6827654284979285 4.516884528765969 0.3279174227967788 -0.7292874477479375 -0.2765870584087112 -1.5274178650248598 1.3338036671130447 0.31990597009524535 -0.9440178035519752 -0.9975817837559355 13.335666788315981 -1.188926695105049 -0.2217167914582192 -1.055490598574431 -3.4959351976191146 0.11934645116824819 -15.766938932409873 -0.26069422451085567 3.5598753215256393 -0.9461911728174722 -14.754893937891664 61.01538701353891 14.768002636806674 14.046832343494877 30.781040287129915 5.7923290379792425 79.15062276210861 23.315699035971736 0.09500438009207891 -7.670996569562443 4.485443212490251 -0.08591692803091489 -1.546504340783461 -0.039891852022797034 0.041100963715574146 -56.27584820301094 -0.02032706758335227 0.0001840245197500229 -56.229304853171406 -38.753628615515034 -0.037124501636297685 0.029577331536686742 -0.01319947734667252 -0.010964214844483327 0.02153032980705088 -0.01547247214649955 0.038616052944024634 -0.02846027728159961 -36.6750009250215 -0.049450896157271745 0.02221966202650989 -0.0265173285028962 0.003586893785699877 0.003107531215102403 -0.034360036498629204 0.04554260613683543 -0.023673699402586634 -19.773873063402146 0.04415744873229841 0.034304828885480365 0.009278062795970649 -0.0048027481349724715 -0.026519379327270005 0.036707162332504685 0.03002692373576487 -0.029129411973287656 24.022304829723044 -0.004860747364854044 0.04552123765784053 28.853495250119494 -0.017121043917188175 0.03365828074441833 28.87804747032962 0.028359069111853232 0.008299456494304325 2.3720413825118225 0.7476477408883331 13.546259812819446 -53.16608425994429 16.34110831946551 -40.87815504568773 12.61494943677215 -2.1344631573617754 -83.24251127578533 -20.294540253055104 11.79044153450967 -9.246808670840819 -0.4867556540784418 0.09784469771068013 -8.114533955439835 0.0314029580658378 -0.0006063137357104626 44.59503429328744 -0.04952117103471583 -0.016527748612336964 44.61082275392634 12.455293265307954 -0.033878643341264204 -0.03859807311436826 0.006801898430139309 0.037975687928567044 -0.03952027919960029 0.023721791550619105 -0.01036869172872199 -0.011107490962068763 11.135203215213123 -0.03695352871097489 -0.032332507431181524 0.04550077462400659 -0.02366121284025863 -0.009405104774792374 0.007127465006529167 0.045413729167853426 -0.0360516835999404 4.782148306916615 -0.006183210035428042 0.0010046740070415176 -0.009323276433904975 0.0188838626006286 0.020586098028392983 0.04666584054590028 0.04648272504745183 -0.0019575646445030392 -5.650355672401048 -0.02787142520994283 -0.04605529476312522 -6.684021464166378 0.01864290872410794 -0.0325115705530599 -6.671746338862929 -0.03739791753130492 -0.03311907977612409 -0.0008621977762495823 -0.009765443979275219 -0.04830177902355935 8.034815319427596 3.46617062424585 -19.189985176358128 -0.014063893674838054 10.431005068094773 0.016317151574552782 -5.60138579059074 -15.62790061603704 3.219070609135635 -0.03253544078287829 0.04085658563518873 -0.03227020163383487 -0.030147540070650652 4.728511295688643 0.046465954552821 12.422131569120411 -8.27631759640429 6.8800384142948445 0.004591160265787711 46.428481808852865 -0.025869658856253613 -4.3471989641254805 -14.770917171280223 -3.8543708855751047 -0.013296064432976528 0.005945965432151174 -0.010888110360790475 -0.03930125572684799 -10.720610039065123 0.038994169138892545 
0.0350654947976205 0.014332073082490869 -0.029038534589532056 -0.010030941824270594 4.566170064123133e-05 -0.010489021153676054 -3.278235431633472 3.813061732399352 -0.822734468245734 -0.6366506724551784 4.4833292291375075 0.32656867719898725 -0.6377282581101066 -0.4023371839084564 -1.4984405016297009 1.2399528434712725 0.21433781694957782 -0.9098205797368586 -1.0405651989628348 13.389253672626653 -1.1472393923196555 -0.20606903162204832 -1.1153186570197873 -3.386578356208633 0.09907352526100535 -15.897091752444343 -0.28165695486726566 3.5785379703291533 -0.920978369792755 -14.661108227583062 60.55380964994717 14.691047053636195 13.981518910390296 29.201342620144516 7.037851268370548 78.81209724195408 24.259141610558846 0.1095775534734223 -7.595824675962002 4.5428065859420865 -0.08103154248702649 -1.6146431964415955 0.00909193857822744 -0.026569137547345002 -56.20367266648386 0.008247055344720491 0.033556523835489536 -56.27899380726635 -38.789966843880606 -0.03144659469128014 0.020921521798679323 -0.0026952034649735147 0.04803807303358648 -0.006419639137105038 -0.002071496936256601 -0.04636800372183175 0.024812468060642467 -36.70302752003546 -0.01969275648655601 0.04934584370884776 -0.008996592135320145 0.02779396643773713 -0.021519621723074905 0.04369206851004541 0.007294831972289061 -0.024162000964952083 -19.73093358945277 -0.04159836118501387 0.024163343406448722 0.016580476664071496 0.01042062864782788 0.029340002668148086 0.007996880271715238 0.01487717265656356 0.009088355222498422 24.05614079113666 -0.034730607396889816 -0.03121044527478208 28.830256700016527 -0.02317759657291513 -0.0006086209459620594 28.865274273407294 -0.0009171290915988775 -0.0007592170990821533 2.5954584785676835 0.8129022757231802 13.5354245933098 -53.00952146767934 14.490029989422075 -41.754158670215595 13.603044007850185 -2.4634001945172725 -83.09239737666279 -21.27239032808662 12.555798712808718 -9.979721065892006 -0.515828816476289 0.03525481278081458 -8.171789038245267 0.03312176815455786 -0.013931895240781202 44.551624310670846 0.010801587009933876 -0.034601959437639274 44.550037142278114 12.458608686293646 -0.0247207323366195 -0.03813026598318976 0.019001846294689668 0.007520422136115704 -0.044088963778425465 -0.04775558607326962 -0.007150393952429889 -0.04600856509321717 11.116883126927789 0.018040495305503765 -0.025206153588214007 -0.007533377871136606 0.025839533570449044 -0.003884309097108639 -0.024284483812994515 -0.007316097845421596 0.0018156529574995352 4.770110564649301 0.0048659279083548106 -0.009672212861789138 0.004393124049196059 -0.020720863156375748 -0.028653451355100917 -0.044147055461964124 0.02680757209030476 0.02823556462312497 -5.627196387846652 -0.004728331362653819 0.03858110576004954 -6.70308646247229 -0.03260025302868543 -0.010480132406201487 -6.683289431041293 -0.029771792123108872 -0.018711486207277032 -0.04620719262126147 -0.04399849118003341 -0.012112145793003449 8.0170344777171 3.4718441778942544 -19.247646978084845 -0.005158408077795644 10.390850498580795 -0.034950683257120876 -5.59220205314881 -15.653766583963606 3.175521299194109 -0.034171383430707636 -0.022086689064238108 -0.0006790418208189306 -0.049267024636903994 4.716336704302983 0.04465178884617562 12.443257410509815 -8.269033921002485 6.886217494222486 0.03251625479776616 46.39250135635055 0.0430725215615614 -4.313090874411811 -14.726419391686752 -3.832949719150643 0.02005727579528428 -0.0003582015288760161 -0.009383043189878806 0.0446943452262874 -10.722655043613752 0.014244160503808346 
